<svg xmlns="http://www.w3.org/2000/svg" xmlns:xlink="http://www.w3.org/1999/xlink" width="500" zoomAndPan="magnify" viewBox="0 0 375 112.499997" height="150" preserveAspectRatio="xMidYMid meet" version="1.0"><defs><g/><clipPath id="id1"><path d="M 8.089844 24.757812 L 105.160156 24.757812 L 105.160156 87.476562 L 8.089844 87.476562 Z M 8.089844 24.757812 " clip-rule="nonzero"/></clipPath></defs><g fill="#ffffff" fill-opacity="1"><g transform="translate(123.720206, 69.089781)"><g><path d="M 27.957031 -8.601562 C 27.957031 -6.234375 26.019531 -4.300781 23.65625 -4.300781 L 6.453125 -4.300781 L 6.453125 -25.804688 L 23.65625 -25.804688 C 26.019531 -25.804688 27.957031 -23.871094 27.957031 -21.503906 Z M 32.257812 -21.503906 C 32.128906 -26.277344 28.257812 -30.105469 23.65625 -30.105469 L 2.152344 -30.105469 L 2.152344 0 L 23.65625 0 C 28.472656 0 32.257812 -4.042969 32.257812 -8.601562 Z M 32.257812 -21.503906 "/></g></g></g><g fill="#ffffff" fill-opacity="1"><g transform="translate(157.693547, 69.089781)"><g><path d="M 6.453125 -25.804688 L 32.257812 -25.804688 L 32.257812 -30.105469 L 2.152344 -30.105469 L 2.152344 0 L 32.257812 0 L 32.257812 -4.300781 L 6.453125 -4.300781 L 6.453125 -12.902344 L 27.957031 -12.902344 L 27.957031 -17.203125 L 6.453125 -17.203125 Z M 6.453125 -25.804688 "/></g></g></g><g fill="#ffffff" fill-opacity="1"><g transform="translate(191.236853, 69.089781)"><g><path d="M 11.828125 0 L 20 0 L 30.964844 -21.503906 L 30.964844 -30.105469 L 26.664062 -30.105469 L 26.664062 -22.535156 L 17.375 -4.300781 L 14.449219 -4.300781 L 5.160156 -22.535156 L 5.160156 -30.105469 L 0.859375 -30.105469 L 0.859375 -21.503906 Z M 11.828125 0 "/></g></g></g><g fill="#ffffff" fill-opacity="1"><g transform="translate(223.059988, 69.089781)"><g><path d="M 10.320312 -30.105469 C 5.503906 -29.976562 1.71875 -26.148438 1.71875 -21.503906 L 1.71875 -8.601562 C 1.71875 -3.742188 5.71875 0 10.320312 0 L 23.226562 0 C 28.042969 0 31.828125 -4.042969 31.828125 -8.601562 L 27.527344 -8.601562 C 27.527344 -6.234375 25.589844 -4.300781 23.226562 -4.300781 L 10.320312 -4.300781 C 7.957031 -4.300781 6.019531 -6.234375 6.019531 -8.601562 L 6.019531 -21.503906 C 6.019531 -23.871094 7.957031 -25.804688 10.320312 -25.804688 L 23.226562 -25.804688 C 25.589844 -25.804688 27.527344 -23.871094 27.527344 -21.503906 L 31.828125 -21.503906 C 31.699219 -26.277344 27.828125 -30.105469 23.226562 -30.105469 Z M 10.320312 -30.105469 "/></g></g></g><g fill="#ffffff" fill-opacity="1"><g transform="translate(256.173249, 69.089781)"><g><path d="M 27.527344 -8.601562 C 27.527344 -6.234375 25.589844 -4.300781 23.226562 -4.300781 L 10.320312 -4.300781 C 7.957031 -4.300781 6.019531 -6.234375 6.019531 -8.601562 L 6.019531 -21.503906 C 6.019531 -23.871094 7.957031 -25.804688 10.320312 -25.804688 L 23.226562 -25.804688 C 25.589844 -25.804688 27.527344 -23.871094 27.527344 -21.503906 Z M 31.828125 -21.503906 C 31.828125 -26.191406 27.785156 -30.105469 23.226562 -30.105469 L 10.320312 -30.105469 C 5.589844 -30.105469 1.71875 -26.234375 1.71875 -21.503906 L 1.71875 -8.601562 C 1.71875 -3.828125 5.546875 0 10.320312 0 L 23.226562 0 C 27.957031 0 31.828125 -3.871094 31.828125 -8.601562 Z M 31.828125 -21.503906 "/></g></g></g><g fill="#ffffff" fill-opacity="1"><g transform="translate(289.716555, 69.089781)"><g><path d="M 27.957031 -17.203125 C 27.957031 -14.839844 26.019531 -12.902344 23.65625 -12.902344 L 6.453125 -12.902344 L 6.453125 -25.804688 L 23.65625 -25.804688 C 26.019531 -25.804688 27.957031 -23.871094 27.957031 -21.503906 Z M 32.257812 0 L 32.257812 -3.054688 L 26.277344 -9.03125 C 29.847656 -10.234375 32.257812 -13.546875 32.257812 -17.203125 L 32.257812 -21.503906 C 32.257812 -26.277344 28.171875 -30.105469 23.65625 -30.105469 L 2.152344 -30.105469 L 2.152344 0 L 6.453125 0 L 6.453125 -8.601562 L 20.601562 -8.601562 L 29.203125 0 Z M 32.257812 0 "/></g></g></g><g fill="#ffffff" fill-opacity="1"><g transform="translate(323.689896, 69.089781)"><g><path d="M 27.957031 -8.601562 C 27.957031 -6.234375 26.019531 -4.300781 23.65625 -4.300781 L 6.453125 -4.300781 L 6.453125 -25.804688 L 23.65625 -25.804688 C 26.019531 -25.804688 27.957031 -23.871094 27.957031 -21.503906 Z M 32.257812 -21.503906 C 32.128906 -26.277344 28.257812 -30.105469 23.65625 -30.105469 L 2.152344 -30.105469 L 2.152344 0 L 23.65625 0 C 28.472656 0 32.257812 -4.042969 32.257812 -8.601562 Z M 32.257812 -21.503906 "/></g></g></g><g clip-path="url(#id1)"><path fill="#ffffff" d="M 8.125 24.757812 L 8.125 87.476562 L 105.125 87.476562 L 105.125 24.757812 Z M 15.054688 31.726562 L 98.195312 31.726562 L 98.195312 80.507812 L 15.054688 80.507812 Z M 21.984375 38.695312 L 21.984375 73.539062 L 32.375 73.539062 C 38.105469 73.539062 42.769531 68.851562 42.769531 63.085938 L 42.769531 49.148438 C 42.769531 43.386719 38.105469 38.695312 32.375 38.695312 Z M 56.625 38.695312 C 52.804688 38.695312 49.695312 41.820312 49.695312 45.664062 L 49.695312 66.570312 C 49.695312 70.414062 52.804688 73.539062 56.625 73.539062 L 63.554688 73.539062 L 63.554688 66.570312 L 56.625 66.570312 L 56.625 59.601562 L 63.554688 59.601562 L 63.554688 52.632812 L 56.625 52.632812 L 56.625 45.664062 L 63.554688 45.664062 L 63.554688 38.695312 Z M 69.414062 38.695312 L 76.632812 70.144531 C 77.089844 72.128906 78.847656 73.539062 80.875 73.539062 C 82.902344 73.539062 84.660156 72.128906 85.117188 70.144531 L 92.335938 38.695312 L 85.226562 38.695312 L 80.875 57.648438 L 76.523438 38.695312 Z M 28.910156 45.664062 L 32.375 45.664062 C 34.289062 45.664062 35.839844 47.226562 35.839844 49.148438 L 35.839844 63.085938 C 35.839844 65.011719 34.289062 66.570312 32.375 66.570312 L 28.910156 66.570312 Z M 28.910156 45.664062 " fill-opacity="1" fill-rule="nonzero"/></g></svg>